<svg width="32" height="32" viewBox="0 0 32 32" fill="none" xmlns="http://www.w3.org/2000/svg"><path fill-rule="evenodd" clip-rule="evenodd" d="M20 4H14.688V22.656C14.688 23.3813 14.4213 24.0107 13.888 24.544C13.376 25.0773 12.7467 25.344 12 25.344H9.344V4H4V28H10.912C12.8493 28 14.568 27.4603 16.0684 26.3808C16.155 26.4884 16.2469 26.5909 16.344 26.688C17.24 27.5627 18.5733 28 20.344 28H23C24.472 28 25.7307 27.4773 26.776 26.432C27.8213 25.3653 28.344 24.1067 28.344 22.656V21.344C28.344 20 27.8213 18.7413 26.776 17.568L21.112 11.232C20.6 10.6347 20.344 10.0053 20.344 9.344C20.344 8.448 20.5787 7.776 21.048 7.328C21.5173 6.88 22.2213 6.656 23.16 6.656C24.6107 6.656 25.4533 7.552 25.688 9.344H28.344C28.1307 5.78133 26.3493 4 23 4H20.344C20.228 4 20.1133 4.00331 20 4.00993V4ZM20 18.2712V18.88C20 20.968 19.373 22.8096 18.119 24.4049C18.2309 24.5394 18.3646 24.6604 18.52 24.768C19.0747 25.152 19.6827 25.344 20.344 25.344C21.2827 25.344 21.9547 25.12 22.36 24.672C22.7867 24.2027 23 23.5307 23 22.656C23 21.9733 22.744 21.344 22.232 20.768L20 18.2712Z" fill="#2D2B2C"/></svg>
