<svg width="48" height="48" viewBox="0 0 48 48" fill="none" xmlns="http://www.w3.org/2000/svg">
<path d="M7.5 9V29.3438L4.07812 32.8154C3.39862 33.4934 3 34.4291 3 35.3906C3 37.3706 4.62937 39 6.60938 39H41.3906C43.3706 39 45 37.3706 45 35.3906C45 34.4291 44.6014 33.492 43.9219 32.8125L40.5 29.3438V9H7.5ZM10.5 12H37.5V28.5H10.5V12ZM24 13.5L21.75 27H24L26.25 13.5H24ZM18.1289 16.5L15.5508 19.6025L15 20.25L15.5508 20.8975L18.1289 24L19.7578 22.7051L17.7158 20.25L19.7578 17.7949L18.1289 16.5ZM29.8711 16.5L28.2422 17.7949L30.2842 20.25L28.2422 22.7051L29.8711 24L32.4492 20.8975L33 20.25L32.4492 19.6025L29.8711 16.5ZM9.65625 31.5H38.3438L41.8125 34.9219C41.9295 35.0389 42 35.2256 42 35.3906C42 35.7536 41.7536 36 41.3906 36H6.60938C6.24638 36 6 35.7536 6 35.3906C6 35.2271 6.0705 35.0404 6.1875 34.9219L9.65625 31.5Z" fill="#ACAFF5"/>
</svg>
