<svg width="48" height="48" viewBox="0 0 48 48" fill="none" xmlns="http://www.w3.org/2000/svg">
<path d="M19.375 28.781L20.625 27.219L16.601 24L20.625 20.781L19.375 19.219L14.375 23.219C14.2578 23.3127 14.1632 23.4315 14.0983 23.5667C14.0333 23.7019 13.9995 23.85 13.9995 24C13.9995 24.15 14.0333 24.2981 14.0983 24.4333C14.1632 24.5685 14.2578 24.6873 14.375 24.781L19.375 28.781ZM28.625 19.219L27.375 20.781L31.399 24L27.375 27.219L28.625 28.781L33.625 24.781C33.7421 24.6873 33.8367 24.5685 33.9017 24.4333C33.9667 24.2981 34.0005 24.15 34.0005 24C34.0005 23.85 33.9667 23.7019 33.9017 23.5667C33.8367 23.4315 33.7421 23.3127 33.625 23.219L28.625 19.219ZM26.976 15.216L22.976 33.216L21.023 32.782L25.023 14.782L26.976 15.216Z" fill="#BFDCBC"/>
</svg>
